<svg width="16" height="19" viewBox="0 0 16 19" xmlns="http://www.w3.org/2000/svg" xmlns:xlink="http://www.w3.org/1999/xlink">
    <defs>
        <path d="M1.09 17.743a.642.642 0 0 1-.649-.634V.634c0-.35.291-.634.65-.634.125 0 .249.036.354.102L14.439 8.34a.624.624 0 0 1 0 1.063l-6.497 4.119a.66.66 0 0 1-.899-.186.624.624 0 0 1 .191-.877l5.66-3.588L1.74 1.801v14.124l3.863-2.511a.66.66 0 0 1 .897.191.624.624 0 0 1-.177.863l-4.873 3.169a.663.663 0 0 1-.36.106" id="a"/>
    </defs>
    <g transform="translate(-.441)" fill="none" fill-rule="evenodd">
        <mask id="b" fill="#fff">
            <use xlink:href="#a"/>
        </mask>
        <use fill="#FFF" xlink:href="#a"/>
        <g mask="url(#b)" fill="#FFF">
            <rect x="1" width="71" height="69" rx="6" transform="translate(-28 -31)"/>
        </g>
    </g>
</svg>
