<svg width="302" height="211" viewBox="0 0 302 211" xmlns="http://www.w3.org/2000/svg">
    <g fill="none" fill-rule="evenodd">
        <path d="M173.382 152.667H8.934a7.466 7.466 0 0 1-7.467-7.467V8.934a7.466 7.466 0 0 1 7.467-7.467H223.6a7.466 7.466 0 0 1 7.467 7.467v46.178" stroke="#0A1630" stroke-width="2.1" stroke-linejoin="round"/>
        <path stroke="#0A1630" stroke-width="2.1" d="M212.284 102.883v-35.15h83.066v111.068h-74.479"/>
        <path d="M207.617 103.508V64a7.466 7.466 0 0 1 7.467-7.467h77.466A7.467 7.467 0 0 1 300.017 64v121.333a7.467 7.467 0 0 1-7.467 7.467h-72.612" stroke="#0A1630" stroke-width="2.1"/>
        <path d="M180.55 102.267h33.6a7.467 7.467 0 0 1 7.467 7.466v92.4a7.467 7.467 0 0 1-7.467 7.467h-33.6a7.466 7.466 0 0 1-7.466-7.467v-92.4a7.466 7.466 0 0 1 7.466-7.466z" stroke="#0A1630" stroke-width="2.1"/>
        <path d="M254.284 188.134a2.801 2.801 0 1 0-.003-5.602 2.801 2.801 0 0 0 .003 5.602M197.35 204.796a2.8 2.8 0 1 0 0-5.6 2.8 2.8 0 0 0 0 5.6" fill="#0A1630"/>
        <path d="M75.667 169.467h81.2" stroke="#0A1630" stroke-width="2.1" stroke-linecap="round"/>
        <path d="M1.467 129.205h171.617M141 151.734l5.6 17.733M91.534 151.734l-5.6 17.733M173.084 194.04h48.533M173.084 116.455h48.533" stroke="#0A1630" stroke-width="2.1"/>
    </g>
</svg>
