<svg width="224" height="42" viewBox="0 0 224 42" fill="none" xmlns="http://www.w3.org/2000/svg">
<path d="M6.69922 3.52734L6.92773 6.59961C8.87435 4.21289 11.5065 3.01953 14.8242 3.01953C18.362 3.01953 20.791 4.41602 22.1113 7.20898C24.041 4.41602 26.7917 3.01953 30.3633 3.01953C33.3424 3.01953 35.5599 3.89128 37.0156 5.63477C38.4714 7.36133 39.1992 9.9681 39.1992 13.4551V31H31.8359V13.4805C31.8359 11.9232 31.5312 10.7891 30.9219 10.0781C30.3125 9.35026 29.2376 8.98633 27.6973 8.98633C25.4967 8.98633 23.9733 10.0358 23.127 12.1348L23.1523 31H15.8145V13.5059C15.8145 11.9147 15.5013 10.7637 14.875 10.0527C14.2487 9.3418 13.1823 8.98633 11.6758 8.98633C9.59375 8.98633 8.08724 9.84961 7.15625 11.5762V31H-0.181641V3.52734H6.69922ZM60.7812 31C60.4427 30.3398 60.1973 29.5189 60.0449 28.5371C58.2676 30.5176 55.957 31.5078 53.1133 31.5078C50.4219 31.5078 48.1875 30.7292 46.4102 29.1719C44.6497 27.6146 43.7695 25.651 43.7695 23.2812C43.7695 20.3698 44.8444 18.1354 46.9941 16.5781C49.1608 15.0208 52.2839 14.2337 56.3633 14.2168H59.7402V12.6426C59.7402 11.373 59.4102 10.3574 58.75 9.5957C58.1068 8.83398 57.0827 8.45312 55.6777 8.45312C54.4421 8.45312 53.4688 8.74935 52.7578 9.3418C52.0638 9.93424 51.7168 10.7467 51.7168 11.7793H44.3789C44.3789 10.1882 44.8698 8.71549 45.8516 7.36133C46.8333 6.00716 48.2214 4.94922 50.0156 4.1875C51.8099 3.40885 53.8242 3.01953 56.0586 3.01953C59.444 3.01953 62.127 3.87435 64.1074 5.58398C66.1048 7.27669 67.1035 9.66341 67.1035 12.7441V24.6523C67.1204 27.2591 67.4844 29.2311 68.1953 30.5684V31H60.7812ZM54.7129 25.8965C55.7962 25.8965 56.7949 25.6595 57.709 25.1855C58.623 24.6947 59.3001 24.043 59.7402 23.2305V18.5078H56.998C53.3249 18.5078 51.3698 19.7773 51.1328 22.3164L51.1074 22.748C51.1074 23.6621 51.429 24.4154 52.0723 25.0078C52.7155 25.6003 53.5957 25.8965 54.7129 25.8965ZM71.6738 17.0605C71.6738 12.8457 72.6725 9.45182 74.6699 6.87891C76.6842 4.30599 79.3926 3.01953 82.7949 3.01953C85.8079 3.01953 88.1523 4.05208 89.8281 6.11719L90.1328 3.52734H96.7852V30.0859C96.7852 32.4896 96.235 34.5801 95.1348 36.3574C94.0514 38.1348 92.5195 39.4889 90.5391 40.4199C88.5586 41.3509 86.2396 41.8164 83.582 41.8164C81.5677 41.8164 79.6042 41.4102 77.6914 40.5977C75.7786 39.8021 74.3314 38.7695 73.3496 37.5L76.5996 33.0312C78.4277 35.0794 80.6452 36.1035 83.252 36.1035C85.1986 36.1035 86.7135 35.5788 87.7969 34.5293C88.8802 33.4967 89.4219 32.0241 89.4219 30.1113V28.6387C87.7292 30.5514 85.5033 31.5078 82.7441 31.5078C79.4434 31.5078 76.7689 30.2214 74.7207 27.6484C72.6895 25.0586 71.6738 21.6309 71.6738 17.3652V17.0605ZM79.0117 17.5938C79.0117 20.082 79.5111 22.0371 80.5098 23.459C81.5085 24.8639 82.8796 25.5664 84.623 25.5664C86.8574 25.5664 88.457 24.7285 89.4219 23.0527V11.5C88.4401 9.82422 86.8574 8.98633 84.6738 8.98633C82.9134 8.98633 81.5254 9.70573 80.5098 11.1445C79.5111 12.5833 79.0117 14.7331 79.0117 17.5938ZM118.367 31C118.029 30.3398 117.783 29.5189 117.631 28.5371C115.854 30.5176 113.543 31.5078 110.699 31.5078C108.008 31.5078 105.773 30.7292 103.996 29.1719C102.236 27.6146 101.355 25.651 101.355 23.2812C101.355 20.3698 102.43 18.1354 104.58 16.5781C106.747 15.0208 109.87 14.2337 113.949 14.2168H117.326V12.6426C117.326 11.373 116.996 10.3574 116.336 9.5957C115.693 8.83398 114.669 8.45312 113.264 8.45312C112.028 8.45312 111.055 8.74935 110.344 9.3418C109.65 9.93424 109.303 10.7467 109.303 11.7793H101.965C101.965 10.1882 102.456 8.71549 103.438 7.36133C104.419 6.00716 105.807 4.94922 107.602 4.1875C109.396 3.40885 111.41 3.01953 113.645 3.01953C117.03 3.01953 119.713 3.87435 121.693 5.58398C123.691 7.27669 124.689 9.66341 124.689 12.7441V24.6523C124.706 27.2591 125.07 29.2311 125.781 30.5684V31H118.367ZM112.299 25.8965C113.382 25.8965 114.381 25.6595 115.295 25.1855C116.209 24.6947 116.886 24.043 117.326 23.2305V18.5078H114.584C110.911 18.5078 108.956 19.7773 108.719 22.3164L108.693 22.748C108.693 23.6621 109.015 24.4154 109.658 25.0078C110.301 25.6003 111.182 25.8965 112.299 25.8965ZM138.756 25.084H152.188V31H129.387V26.5312L142.311 9.46875H129.768V3.52734H151.781V7.86914L138.756 25.084ZM164.527 31H157.164V3.52734H164.527V31ZM156.732 -3.58203C156.732 -4.68229 157.096 -5.58789 157.824 -6.29883C158.569 -7.00977 159.576 -7.36523 160.846 -7.36523C162.098 -7.36523 163.097 -7.00977 163.842 -6.29883C164.587 -5.58789 164.959 -4.68229 164.959 -3.58203C164.959 -2.46484 164.578 -1.55078 163.816 -0.839844C163.072 -0.128906 162.081 0.226562 160.846 0.226562C159.61 0.226562 158.611 -0.128906 157.85 -0.839844C157.105 -1.55078 156.732 -2.46484 156.732 -3.58203ZM177.35 3.52734L177.578 6.70117C179.542 4.24674 182.174 3.01953 185.475 3.01953C188.386 3.01953 190.553 3.87435 191.975 5.58398C193.396 7.29362 194.124 9.84961 194.158 13.252V31H186.82V13.4297C186.82 11.8724 186.482 10.7467 185.805 10.0527C185.128 9.3418 184.002 8.98633 182.428 8.98633C180.363 8.98633 178.814 9.86654 177.781 11.627V31H170.443V3.52734H177.35ZM212.389 31.5078C208.36 31.5078 205.076 30.2721 202.537 27.8008C200.015 25.3294 198.754 22.0371 198.754 17.9238V17.2129C198.754 14.4538 199.287 11.9909 200.354 9.82422C201.42 7.64062 202.926 5.96484 204.873 4.79688C206.837 3.61198 209.071 3.01953 211.576 3.01953C215.334 3.01953 218.288 4.20443 220.438 6.57422C222.604 8.94401 223.688 12.304 223.688 16.6543V19.6504H206.193C206.43 21.4447 207.141 22.8835 208.326 23.9668C209.528 25.0501 211.043 25.5918 212.871 25.5918C215.698 25.5918 217.907 24.5677 219.498 22.5195L223.104 26.5566C222.003 28.1139 220.514 29.3327 218.635 30.2129C216.756 31.0762 214.674 31.5078 212.389 31.5078ZM211.551 8.96094C210.095 8.96094 208.91 9.45182 207.996 10.4336C207.099 11.4154 206.523 12.8203 206.27 14.6484H216.477V14.0645C216.443 12.4395 216.003 11.1868 215.156 10.3066C214.31 9.40951 213.108 8.96094 211.551 8.96094Z" fill="black"/>
</svg>
